<svg class="icon" viewBox="0 0 1024 1024" version="1.1" xmlns="http://www.w3.org/2000/svg"
     width="200" height="200">
    <path d="M91.90400001 405.683C155.366 168.96 398.694 28.493 635.392 91.93a441.856 441.856 0 0 1 191.59 107.57 38.4 38.4 0 1 1-53.094 55.502 365.082 365.082 0 0 0-158.387-88.91c-195.738-52.428-396.954 63.745-449.408 259.482-52.429 195.73800001 63.744 396.928 259.481 449.383 195.738 52.48 396.928-63.719 449.383-259.456 13.824-51.507 16.205-104.346 7.552-155.725a38.4 38.4 0 0 1 75.725-12.749c10.496 62.183 7.57700001 126.157-9.08800001 188.365-63.437 236.698-306.74000001 377.19-543.46299999 313.75399999C168.96 885.709 28.493 642.406 91.93 405.683z m666.85399999 3.917c26.292-0.077 46.848 11.264 56.16700001 22.63 8.294 9.728 5.043 25.242-13.56800001 36.762 0 0-241.127 133.683-370.074 201.523a77.312 77.312 0 0 1-28.16 8.19200001 1103.104 1103.104 0 0 1-45.184 2.73999999c-8.013 0.332-18.432 1.203-26.445-6.14499999l-69.888-64.69000001a18.944 18.944 0 0 1-5.478-15.02800001c0.768-5.811 3.149-10.931 6.835-15.02699999a29.67 29.67 0 0 1 31.923-7.501c20.916 7.49999999 54.093 15.949 79.463 27.904 1.792 0.666 3.73700001 0.666 5.45300001 0l61.79799998-29.286c3.072-2.202 7.86-8.96 1e-8-13.64499999l-116.07-58.54700001c-6.503-2.637-13.056-12.544-2.04800001-20.404 6.988-5.376 13.9-11.11 21.06800001-16.307 6.324-4.93999999 15.284-12.723 26.47-10.931 72.884 8.80600001 145.767 18.176 218.64999999 27.238a6.682 6.682 0 0 0 3.43-0.69c3.329-1.434 56.935-25.524 116.73700001-57.191a112.026 112.026 0 0 1 48.921-11.597z"
          fill="#07b0f5"/>
</svg>